# xmcd
# 
# Track frame offsets:
#     150
#     36125
#     56922
#     77582
#     105037
#     130547
#     151212
#     167672
#     187317
#     217035
# 
# Disc length: 3319
# 
# Revision: 1
# Processed by: cddbd v1.5.2PL0 Copyright (c) Steve Scherf et al.
# Submitted via: fre:ac v1.0.17
# 
DISCID=7d0cf50a
DTITLE=Chris Barber - Stardust
DYEAR=1988
DGENRE=Jazz
TTITLE0=The Man I Love
TTITLE1=Stardust
TTITLE2=All Of Me
TTITLE3=On The Sunny Side Of The Street
TTITLE4=Bei mir bist du schoen
TTITLE5=St. Louis Blues
TTITLE6=Georgia On My Mind
TTITLE7=After You've Gone
TTITLE8=Over The Rainbow
TTITLE9=Lover Come Back To Me
EXTD=YEAR: 1988
EXTT0=
EXTT1=
EXTT2=
EXTT3=
EXTT4=
EXTT5=
EXTT6=
EXTT7=
EXTT8=
EXTT9=
PLAYORDER=
